<svg xmlns="http://www.w3.org/2000/svg" viewBox="0 0 64 64" fill="none">
  <defs>
    <linearGradient id="g" x1="14" y1="10" x2="52" y2="56" gradientUnits="userSpaceOnUse">
      <stop stop-color="#2B67F6" />
      <stop offset="1" stop-color="#56B6FF" />
    </linearGradient>
    <linearGradient id="h" x1="20" y1="16" x2="44" y2="48" gradientUnits="userSpaceOnUse">
      <stop stop-color="#ffffff" stop-opacity=".98" />
      <stop offset="1" stop-color="#DCEBFF" />
    </linearGradient>
  </defs>
  <rect x="6" y="6" width="52" height="52" rx="16" fill="url(#g)" />
  <path d="M20 30.5C20 23.596 25.596 18 32.5 18S45 23.596 45 30.5V34H20v-3.5Z" fill="url(#h)" />
  <path d="M17.5 34h30v13.5A3.5 3.5 0 0 1 44 51H21a3.5 3.5 0 0 1-3.5-3.5V34Z" fill="white" fill-opacity=".96" />
  <rect x="26" y="39" width="12" height="8" rx="3" fill="#2B67F6" />
  <circle cx="32" cy="43" r="1.7" fill="white" />
  <path d="M32 36a5 5 0 0 0-5 5v3h10v-3a5 5 0 0 0-5-5Z" fill="#DCEBFF" />
</svg>
